<?xml version="1.0" encoding="UTF-8"?>
<svg id="Capa_1" xmlns="http://www.w3.org/2000/svg" version="1.1" viewBox="0 0 769 179.11">
  <!-- Generator: Adobe Illustrator 29.0.1, SVG Export Plug-In . SVG Version: 2.1.0 Build 192)  -->
  <defs>
    <style>
      .st0 {
        fill: #fff;
      }
    </style>
  </defs>
  <path class="st0" d="M12.54,66.82c.07.27.14.66.11,1.1-.11-.3-.11-.63-.11-1.1Z"/>
  <path class="st0" d="M12.54,55.17c.07.27.14.66.11,1.1-.11-.3-.11-.63-.11-1.1Z"/>
  <g>
    <path class="st0" d="M95.29,14.66c-6.77,13.48-20.29,49.04-12.73,98.2,14.69-4.47,27.41-15.06,34.03-30.23,10.98-25.13,1.39-53.99-21.3-67.97Z"/>
    <path class="st0" d="M94.51,14.17s-.09-.04-.13-.07c-11.16,11.22-36.74,43.96-40.98,99.37-.3-.06-.56-.14-.86-.2,4.64,1.26,9.34,1.94,14.01,1.96-2.95-50.14,18.45-87.69,27.96-101.07Z"/>
    <path class="st0" d="M92.3,13.02c-1.23-.69-2.46-1.39-3.78-1.97C61-.96,28.96,11.62,16.95,39.13c-5.85,13.4-5.82,27.84-1.11,40.54C40.49,36.16,77.72,18.08,92.3,13.02Z"/>
    <path class="st0" d="M93.21,13.5c-13.07,6.63-48.38,32.05-66.33,84.2,2.97,3.22,6.33,6.13,10.11,8.6C46.85,55.02,79.64,23.68,93.37,13.58c-.05-.03-.11-.05-.16-.08Z"/>
  </g>
  <rect class="st0" x="721.93" y="103.37" width=".78" height=".78"/>
  <g>
    <path class="st0" d="M211.74,120.91v51.18h-5.77v-44.02l.04-1.54.04-1.54h-.15l-.45,1.2c-.22.6-.37.99-.45,1.16l-.97,2.4-17.43,42.33h-5.77l-17.47-41.84-1.01-2.36-.45-1.2c-.13-.28-.28-.66-.45-1.16h-.15l.04,1.39.04,1.42v43.75h-5.77v-51.18h10.01l13.65,33.11,2.18,5.36,1.09,2.66,1.05,2.66h.15l1.05-2.66c.52-1.28.88-2.16,1.05-2.66l2.21-5.32,13.57-33.14h10.16Z"/>
    <path class="st0" d="M246.12,161.25h5.36l.04,1.31c0,3.72-1.13,6.33-3.39,7.82-2.26,1.49-6.23,2.23-11.9,2.23-6.6,0-10.93-1.21-12.99-3.62-2.06-2.41-3.09-7.48-3.09-15.2,0-7.15,1.04-11.95,3.11-14.4,2.07-2.45,6.14-3.67,12.18-3.67,6.6,0,10.92,1.06,12.97,3.19,2.05,2.12,3.07,6.6,3.07,13.42v2.81h-25.79c0,5.65.61,9.25,1.82,10.8,1.21,1.55,4.04,2.32,8.49,2.32s6.97-.37,8.23-1.11c1.26-.74,1.89-2.33,1.89-4.78v-1.13ZM246.12,151.05l-.04-1.69c0-3.87-.64-6.39-1.91-7.56-1.27-1.16-4.02-1.74-8.25-1.74s-7.01.68-8.27,2.04c-1.26,1.36-1.89,4.34-1.89,8.94h20.36ZM242.15,121.43l2.7,3.67-11.06,6.79-1.8-2.77,10.16-7.69Z"/>
    <path class="st0" d="M285.04,136.24l-11.62,16.87,13.01,18.97h-6.26l-9.48-14.47-9.52,14.47h-6.26l13.01-18.75-11.66-17.1h6.3l8.14,13.08,8.1-13.08h6.26Z"/>
    <path class="st0" d="M296.03,120.91v5.89h-5.25v-5.89h5.25ZM296.03,136.24v35.84h-5.25v-35.84h5.25Z"/>
    <path class="st0" d="M329.85,159.15h5.25l.04,1.95c0,7.67-5.03,11.51-15.07,11.51-6.45,0-10.71-1.21-12.78-3.64-2.08-2.42-3.11-7.42-3.11-15,0-7.1,1.06-11.92,3.17-14.45s6.13-3.81,12.05-3.81,9.8.86,11.92,2.57c2.12,1.71,3.19,4.93,3.19,9.65h-5.25v-.94c0-2.77-.69-4.62-2.06-5.55-1.38-.92-4.11-1.39-8.21-1.39s-6.49.88-7.61,2.62c-1.12,1.75-1.69,5.67-1.69,11.77s.64,9.74,1.93,11.36,4.29,2.44,9.02,2.44c4,0,6.54-.53,7.61-1.59,1.07-1.06,1.61-3.57,1.61-7.52Z"/>
    <path class="st0" d="M357.25,135.72c6.62,0,10.92,1.15,12.9,3.45,1.97,2.3,2.96,7.3,2.96,15s-.99,12.7-2.96,15c-1.97,2.3-6.27,3.45-12.9,3.45s-10.89-1.15-12.86-3.45c-1.97-2.3-2.96-7.3-2.96-15s.99-12.7,2.96-15c1.97-2.3,6.26-3.45,12.86-3.45ZM357.25,140.07c-4.65,0-7.53.76-8.64,2.27s-1.67,5.46-1.67,11.83.56,10.32,1.67,11.83c1.11,1.51,3.99,2.27,8.64,2.27s7.57-.76,8.68-2.27c1.11-1.51,1.67-5.46,1.67-11.83s-.56-10.32-1.67-11.83c-1.11-1.51-4.01-2.27-8.68-2.27Z"/>
  </g>
  <polygon class="st0" points="739.34 93.96 735.63 93.96 735.63 92.71 744.48 92.71 744.48 93.96 740.8 93.96 740.8 103.76 739.34 103.76 739.34 93.96"/>
  <g>
    <polygon class="st0" points="228.26 18.07 228.26 103.76 212 103.76 212 66.72 171.81 66.72 171.81 103.76 155.56 103.76 155.56 18.07 171.81 18.07 171.81 53.04 212 53.04 212 18.07 228.26 18.07"/>
    <path class="st0" d="M252.77,103.76h-14.38v-60.01h14.38v60.01ZM252.77,30.06h-14.38v-11.99h14.38v11.99Z"/>
    <rect class="st0" x="262.39" y="18.07" width="14.38" height="85.69"/>
    <path class="st0" d="M324.62,80.85h14.32v2.08l-.88,9.09c-1.76,8.28-10.34,12.44-25.74,12.44-11.29,0-18.81-2.04-22.54-6.13-3.72-4.08-5.58-12.29-5.58-24.64s1.86-20.17,5.58-24.35c3.73-4.19,10.97-6.28,21.72-6.28s17.41,1.52,21.1,4.55c3.67,3.03,5.52,8.8,5.52,17.29h-14.26c0-6.98-4.02-10.49-12.1-10.49-5.74,0-9.34,1.11-10.8,3.33-1.48,2.23-2.2,7.66-2.2,16.33s.81,13.63,2.41,15.79c1.6,2.16,5.55,3.24,11.83,3.24,4.94,0,8.11-.75,9.51-2.23,1.41-1.49,2.1-4.83,2.1-10.01"/>
    <path class="st0" d="M371.23,54.41c-5.98,0-9.79,1.07-11.43,3.24-1.63,2.15-2.45,7.17-2.45,15.09,0,9.05.76,14.7,2.33,16.96,1.55,2.26,5.42,3.39,11.61,3.39s9.76-1.19,11.33-3.59c1.57-2.37,2.35-8.11,2.35-17.19,0-7.66-.81-12.56-2.45-14.7-1.63-2.13-5.4-3.2-11.3-3.2M371.36,43.05c11.59,0,19.19,1.85,22.78,5.56,3.61,3.7,5.4,11.51,5.4,23.44,0,13.31-1.76,22.04-5.28,26.18-3.51,4.14-10.92,6.22-22.22,6.22-12.26,0-20.21-1.93-23.82-5.78-3.61-3.85-5.42-12.32-5.42-25.42s1.77-20.77,5.33-24.56c3.56-3.75,11.3-5.64,23.24-5.64"/>
  </g>
  <g>
    <path class="st0" d="M457.06,61.13h36.73c.15,2.22.25,5.33.25,9.35,0,15.45-1.9,24.99-5.68,28.66-3.79,3.67-13.69,5.49-29.66,5.49-15.11,0-24.83-2.17-29.13-6.5-4.31-4.33-6.47-14.04-6.47-29.15l-.07-12.61.07-7.6c0-12.69,2.38-21.12,7.18-25.29,4.79-4.2,14.44-6.29,28.96-6.29s23.96,1.37,28.21,4.11c4.2,2.74,6.32,8.86,6.32,18.37v3.26h-9.48v-2.12c0-7-1.44-11.33-4.29-12.97-2.87-1.65-10.36-2.48-22.46-2.48-11.17,0-18.16,1.33-20.95,3.99-2.82,2.66-4.21,9.3-4.21,19.92l-.12,11.37.06,12.23c0,10.8,1.54,17.43,4.67,19.9,3.12,2.47,11.43,3.7,24.94,3.7,10.34,0,16.74-1.17,19.18-3.52,2.45-2.33,3.67-8.48,3.67-18.39,0-.8-.17-2.56-.49-5.27h-27.25v-8.16Z"/>
    <rect class="st0" x="504.86" y="18.07" width="8.8" height="85.68"/>
    <path class="st0" d="M553.12,50.14c-7.79,0-12.61,1.26-14.47,3.8-1.87,2.53-2.77,9.13-2.77,19.8s.9,17.27,2.77,19.8c1.86,2.54,6.68,3.8,14.47,3.8s12.67-1.26,14.53-3.8c1.88-2.53,2.8-9.13,2.8-19.8s-.92-17.27-2.8-19.8c-1.85-2.53-6.7-3.8-14.53-3.8M553.12,42.86c11.08,0,18.29,1.92,21.59,5.77,3.32,3.86,4.97,12.22,4.97,25.11s-1.65,21.26-4.97,25.11c-3.29,3.84-10.5,5.77-21.59,5.77s-18.21-1.93-21.53-5.77c-3.3-3.86-4.97-12.22-4.97-25.11s1.66-21.25,4.97-25.11c3.32-3.85,10.49-5.77,21.53-5.77"/>
    <path class="st0" d="M619.01,50.14c-6.9,0-11.53,1.47-13.87,4.42-2.37,2.95-3.52,8.82-3.52,17.61,0,10.84,1.05,17.74,3.18,20.72,2.1,2.96,6.98,4.45,14.58,4.45,6.45,0,10.72-1.52,12.78-4.56,2.08-3.03,3.1-9.25,3.1-18.67,0-9.91-1.01-16.39-3.08-19.43-2.03-3.03-6.45-4.55-13.18-4.55M592.6,103.74V18.06h8.78v33.33l.19.19c2-5.81,8.58-8.72,19.71-8.72,8.79,0,14.86,2.27,18.2,6.83,3.36,4.57,5.03,12.83,5.03,24.8,0,11.34-1.78,19.2-5.32,23.57-3.54,4.37-9.92,6.56-19.18,6.56s-15.69-2.78-18.82-8.35l-.26.06.43,7.4h-8.78Z"/>
    <path class="st0" d="M680.83,74.05c-6.74,0-11.12.71-13.15,2.14-2.02,1.42-3.04,4.48-3.04,9.17s1,8.07,3.01,9.64c2.01,1.57,6.1,2.35,12.24,2.35,12.4,0,18.59-3.77,18.59-11.29,0-4.73-1.21-7.92-3.61-9.56-2.39-1.62-7.08-2.44-14.03-2.44M666.7,60.56h-8.71c0-6.99,1.58-11.68,4.73-14.09,3.16-2.41,9.34-3.61,18.54-3.61,10.01,0,16.77,1.47,20.28,4.42,3.52,2.96,5.27,8.57,5.27,16.86v39.6h-8.78l.69-6.46-.19-.06c-3.34,4.93-10.16,7.41-20.41,7.41-15.16,0-22.71-6.08-22.71-18.27,0-7.23,1.69-12.25,5.09-15,3.4-2.78,9.51-4.16,18.4-4.16,10.54,0,16.85,2.08,18.95,6.22l.18-.06v-7.28c0-6.87-.93-11.31-2.82-13.35-1.89-2.02-6-3.04-12.36-3.04-10.81,0-16.19,3.04-16.19,9.11,0,.29.02.87.05,1.75"/>
    <rect class="st0" x="722.32" y="18.07" width="8.78" height="85.68"/>
  </g>
  <polygon class="st0" points="745.59 92.71 747.61 92.71 751.08 102 754.58 92.71 756.57 92.71 756.57 103.76 755.19 103.76 755.19 94.58 755.16 94.58 751.71 103.76 750.46 103.76 747 94.58 746.98 94.58 746.98 103.76 745.59 103.76 745.59 92.71"/>
  <rect class="st0" x="155.19" y="120.51" width=".78" height=".78"/>
</svg>